<mxfile host="65bd71144e">
    <diagram name="Page-1" id="lMXFKlL8Bwvw9kg3FBqw">
        <mxGraphModel dx="2990" dy="2977" grid="1" gridSize="10" guides="1" tooltips="1" connect="1" arrows="1" fold="1" page="1" pageScale="1" pageWidth="850" pageHeight="1100" background="none" math="0" shadow="0">
            <root>
                <mxCell id="0"/>
                <mxCell id="1" style="" parent="0"/>
                <mxCell id="GoKNf1hH-Z8f_osksqzi-78" value="" style="rounded=1;whiteSpace=wrap;html=1;fontFamily=Helvetica;fontSize=11;fontColor=#000000;labelBackgroundColor=default;resizable=1;fillColor=#FFFFFF;strokeColor=#000000;strokeWidth=4;align=center;verticalAlign=middle;arcSize=12;movable=1;rotatable=1;deletable=1;editable=1;connectable=1;opacity=90;gradientColor=none;" parent="1" vertex="1">
                    <mxGeometry x="-570" y="-970" width="2180" height="570" as="geometry"/>
                </mxCell>
                <mxCell id="GoKNf1hH-Z8f_osksqzi-74" style="edgeStyle=orthogonalEdgeStyle;rounded=1;orthogonalLoop=1;jettySize=auto;html=1;exitX=1;exitY=0.5;exitDx=0;exitDy=0;exitPerimeter=0;entryX=0;entryY=0.5;entryDx=0;entryDy=0;movable=1;resizable=1;rotatable=1;deletable=1;editable=1;locked=0;connectable=1;opacity=70;strokeColor=#000000;strokeWidth=4;align=center;verticalAlign=middle;arcSize=12;fontFamily=Helvetica;fontSize=11;fontColor=#000000;labelBackgroundColor=default;startArrow=none;endArrow=classic;endFill=1;curved=0;" parent="1" edge="1">
                    <mxGeometry relative="1" as="geometry">
                        <mxPoint x="1890" y="-718" as="sourcePoint"/>
                    </mxGeometry>
                </mxCell>
                <mxCell id="9" value="" style="group;fontColor=#000000;" parent="1" vertex="1" connectable="0">
                    <mxGeometry x="-530" y="-870" width="798" height="380" as="geometry"/>
                </mxCell>
                <mxCell id="8" value="&lt;b&gt;&lt;font style=&quot;font-size: 22px;&quot;&gt;Process 1&lt;/font&gt;&lt;/b&gt;" style="html=1;overflow=block;blockSpacing=1;whiteSpace=wrap;container=0;pointerEvents=0;collapsible=0;recursiveResize=0;fontSize=20;spacing=0;strokeColor=#82b366;strokeOpacity=100;fillOpacity=100;rounded=1;absoluteArcSize=1;arcSize=71;fillColor=#d5e8d4;strokeWidth=5;lucidId=YW3KrpG5FYHL;horizontal=1;verticalAlign=top;spacingTop=10;spacingLeft=10;spacingRight=10;movable=1;resizable=1;rotatable=1;deletable=1;editable=1;locked=0;connectable=1;fontColor=#000000;" parent="9" vertex="1">
                    <mxGeometry x="178" width="620" height="380" as="geometry"/>
                </mxCell>
                <mxCell id="7" value="" style="group" parent="9" vertex="1" connectable="0">
                    <mxGeometry y="70.5" width="763" height="270.00000000000006" as="geometry"/>
                </mxCell>
                <mxCell id="GoKNf1hH-Z8f_osksqzi-15" value="&lt;div&gt;HTTP&amp;nbsp;&lt;/div&gt;&lt;div&gt;Request&lt;/div&gt;" style="rounded=1;absoluteArcSize=1;arcSize=2;verticalAlign=bottom;fillColor=#FFFFFF;strokeColor=#000000;whiteSpace=wrap;fontSize=18;fontFamily=Helvetica;spacing=0;shadow=1;strokeWidth=2;html=1;movable=1;resizable=1;rotatable=1;deletable=1;editable=1;locked=0;connectable=1;fontColor=#000000;fontStyle=1;container=0;" parent="7" vertex="1">
                    <mxGeometry x="3" y="62.85000000000002" width="120" height="131" as="geometry"/>
                </mxCell>
                <mxCell id="GoKNf1hH-Z8f_osksqzi-17" value="" style="html=1;jettySize=18;whiteSpace=wrap;fontSize=11;strokeColor=#000000;strokeOpacity=100;strokeWidth=4;rounded=1;arcSize=12;edgeStyle=orthogonalEdgeStyle;startArrow=none;endArrow=classic;endFill=1;entryX=-0.006;entryY=0.5;entryPerimeter=0;lucidId=-Y3KwEjDYEKj;movable=1;resizable=1;rotatable=1;deletable=1;editable=1;locked=0;connectable=1;align=center;verticalAlign=middle;fontFamily=Helvetica;fontColor=#000000;labelBackgroundColor=default;curved=0;opacity=70;exitX=1;exitY=0.5;exitDx=0;exitDy=0;" parent="7" source="GoKNf1hH-Z8f_osksqzi-15" target="GoKNf1hH-Z8f_osksqzi-6" edge="1">
                    <mxGeometry width="100" height="100" relative="1" as="geometry">
                        <Array as="points">
                            <mxPoint x="163" y="128"/>
                            <mxPoint x="163" y="128"/>
                        </Array>
                        <mxPoint x="123" y="164" as="sourcePoint"/>
                    </mxGeometry>
                </mxCell>
                <mxCell id="GoKNf1hH-Z8f_osksqzi-16" style="shape=mxgraph.gcp2.users;part=1;dashed=0;connectable=1;html=1;strokeColor=none;shadow=0;whiteSpace=wrap;fontSize=10;fontFamily=Roboto;spacing=0;rounded=1;absoluteArcSize=1;arcSize=3;fillColor=#757575;strokeWidth=1.5;movable=1;resizable=1;rotatable=1;deletable=1;editable=1;locked=0;" parent="7" vertex="1">
                    <mxGeometry x="31.5" y="84.505" width="62.99999999999999" height="39.69" as="geometry">
                        <mxPoint x="-31.499999999999996" y="21.654999999999998" as="offset"/>
                    </mxGeometry>
                </mxCell>
                <mxCell id="GoKNf1hH-Z8f_osksqzi-5" value="Queue" style="html=1;overflow=block;blockSpacing=1;whiteSpace=wrap;shape=cylinder3;direction=south;size=10;anchorPointDirection=0;boundedLbl=1;fontSize=18;spacing=9;strokeColor=#000000;rounded=1;absoluteArcSize=1;arcSize=9;fillColor=#FFFFFF;strokeWidth=2;lucidId=YW3Kj~0P2WnY;fontColor=#000000;movable=1;resizable=1;rotatable=1;deletable=1;editable=1;locked=0;connectable=1;fontStyle=1;align=center;verticalAlign=middle;fontFamily=Helvetica;" parent="7" vertex="1">
                    <mxGeometry x="618.5045871559633" y="153.06338028169012" width="144.4954128440367" height="85.56338028169014" as="geometry"/>
                </mxCell>
                <mxCell id="GoKNf1hH-Z8f_osksqzi-6" value="Process" style="html=1;overflow=block;blockSpacing=1;whiteSpace=wrap;fontSize=18;spacing=9;strokeColor=#000000;rounded=1;absoluteArcSize=1;arcSize=9;fillColor=#FFFFFF;strokeWidth=2;lucidId=YW3KcYp1MhGA;fontColor=#000000;movable=1;resizable=1;rotatable=1;deletable=1;editable=1;locked=0;connectable=1;fontStyle=1;perimeterSpacing=0;align=center;verticalAlign=middle;fontFamily=Helvetica;" parent="7" vertex="1">
                    <mxGeometry x="238" y="85.56338028169012" width="115.59633027522935" height="85.56338028169014" as="geometry"/>
                </mxCell>
                <mxCell id="GoKNf1hH-Z8f_osksqzi-9" value="" style="html=1;jettySize=18;whiteSpace=wrap;fontSize=11;strokeColor=#000000;strokeOpacity=100;strokeWidth=4;rounded=1;arcSize=12;edgeStyle=orthogonalEdgeStyle;startArrow=none;endArrow=classic;endFill=1;exitX=1;exitY=0.75;entryX=0;entryY=0.5;entryPerimeter=0;lucidId=YW3KdxEAY-yI;movable=1;resizable=1;rotatable=1;deletable=1;editable=1;locked=0;connectable=1;entryDx=0;entryDy=0;align=center;verticalAlign=middle;fontFamily=Helvetica;fontColor=#000000;labelBackgroundColor=default;curved=1;opacity=70;exitDx=0;exitDy=0;" parent="7" source="GoKNf1hH-Z8f_osksqzi-6" target="GoKNf1hH-Z8f_osksqzi-5" edge="1">
                    <mxGeometry width="100" height="100" relative="1" as="geometry">
                        <Array as="points">
                            <mxPoint x="380" y="150"/>
                            <mxPoint x="380" y="196"/>
                        </Array>
                        <mxPoint x="353.5963302752292" y="128.34507042253517" as="sourcePoint"/>
                        <mxPoint x="521.6733944954128" y="199.83802816901436" as="targetPoint"/>
                    </mxGeometry>
                </mxCell>
                <mxCell id="GoKNf1hH-Z8f_osksqzi-4" value="Database" style="html=1;overflow=block;blockSpacing=1;whiteSpace=wrap;shape=cylinder3;size=4;anchorPointDirection=0;boundedLbl=1;fontSize=18;spacing=9;strokeColor=#000000;rounded=1;absoluteArcSize=1;arcSize=9;fillColor=#FFFFFF;strokeWidth=2;lucidId=YW3Kp418ABGM;fontColor=#000000;movable=1;resizable=1;rotatable=1;deletable=1;editable=1;locked=0;connectable=1;fontStyle=1;align=center;verticalAlign=middle;fontFamily=Helvetica;" parent="7" vertex="1">
                    <mxGeometry x="435.4770642201835" width="91.5137614678899" height="114.08450704225353" as="geometry"/>
                </mxCell>
                <mxCell id="4" value="" style="html=1;jettySize=18;whiteSpace=wrap;fontSize=11;strokeColor=#000000;strokeOpacity=100;strokeWidth=4;rounded=1;arcSize=12;edgeStyle=orthogonalEdgeStyle;startArrow=none;endArrow=classic;endFill=1;entryX=0;entryY=0.5;entryPerimeter=0;lucidId=-Y3KwEjDYEKj;movable=1;resizable=1;rotatable=1;deletable=1;editable=1;locked=0;connectable=1;align=center;verticalAlign=middle;fontFamily=Helvetica;fontColor=#000000;labelBackgroundColor=default;curved=1;opacity=70;exitX=1;exitY=0.25;exitDx=0;exitDy=0;entryDx=0;entryDy=0;" parent="7" source="GoKNf1hH-Z8f_osksqzi-6" target="GoKNf1hH-Z8f_osksqzi-4" edge="1">
                    <mxGeometry width="100" height="100" relative="1" as="geometry">
                        <mxPoint x="175.38532110091742" y="137.85211267605632" as="sourcePoint"/>
                        <mxPoint x="246.93944954128438" y="137.85211267605632" as="targetPoint"/>
                    </mxGeometry>
                </mxCell>
                <mxCell id="GoKNf1hH-Z8f_osksqzi-12" value="command: &lt;br&gt;&lt;div&gt;start next&amp;nbsp;&lt;/div&gt;&lt;div&gt;process&lt;/div&gt;" style="html=1;overflow=block;blockSpacing=1;whiteSpace=wrap;ellipse;shape=cloud;fontSize=18;spacing=9;strokeColor=#000000;strokeOpacity=100;fillOpacity=100;rounded=1;absoluteArcSize=1;arcSize=9;fillColor=#FFFFFF;strokeWidth=2;lucidId=YW3K_GFCVog0;movable=1;resizable=1;rotatable=1;deletable=1;editable=1;locked=0;connectable=1;fontColor=#000000;align=center;verticalAlign=middle;fontFamily=Helvetica;fontStyle=1;" parent="9" vertex="1">
                    <mxGeometry x="382.03495412844035" y="184.58450704225356" width="211.92660550458717" height="155.9154929577465" as="geometry"/>
                </mxCell>
                <mxCell id="25" value="" style="group" parent="1" vertex="1" connectable="0">
                    <mxGeometry x="910" y="-870" width="635" height="380" as="geometry"/>
                </mxCell>
                <mxCell id="26" value="&lt;b&gt;&lt;font style=&quot;font-size: 22px;&quot;&gt;Process 3&lt;/font&gt;&lt;/b&gt;" style="html=1;overflow=block;blockSpacing=1;whiteSpace=wrap;container=0;pointerEvents=0;collapsible=0;recursiveResize=0;fontSize=20;spacing=0;strokeColor=#0e8088;strokeOpacity=100;fillOpacity=100;rounded=1;absoluteArcSize=1;arcSize=71;fillColor=#b0e3e6;strokeWidth=5;lucidId=YW3KrpG5FYHL;horizontal=1;verticalAlign=top;spacingTop=10;spacingLeft=10;spacingRight=10;movable=1;resizable=1;rotatable=1;deletable=1;editable=1;locked=0;connectable=1;fontColor=#000000;" parent="25" vertex="1">
                    <mxGeometry x="15" width="620" height="380" as="geometry"/>
                </mxCell>
                <mxCell id="27" value="Queue" style="html=1;overflow=block;blockSpacing=1;whiteSpace=wrap;shape=cylinder3;direction=south;size=10;anchorPointDirection=0;boundedLbl=1;fontSize=18;spacing=9;strokeColor=#000000;rounded=1;absoluteArcSize=1;arcSize=9;fillColor=#FFFFFF;strokeWidth=2;lucidId=YW3Kj~0P2WnY;fontColor=#000000;movable=1;resizable=1;rotatable=1;deletable=1;editable=1;locked=0;connectable=1;fontStyle=1;align=center;verticalAlign=middle;fontFamily=Helvetica;" parent="25" vertex="1">
                    <mxGeometry x="455.50458715596335" y="223.56338028169012" width="144.4954128440367" height="85.56338028169014" as="geometry"/>
                </mxCell>
                <mxCell id="28" value="Process" style="html=1;overflow=block;blockSpacing=1;whiteSpace=wrap;fontSize=18;spacing=9;strokeColor=#000000;rounded=1;absoluteArcSize=1;arcSize=9;fillColor=#FFFFFF;strokeWidth=2;lucidId=YW3KcYp1MhGA;fontColor=#000000;movable=1;resizable=1;rotatable=1;deletable=1;editable=1;locked=0;connectable=1;fontStyle=1;perimeterSpacing=0;align=center;verticalAlign=middle;fontFamily=Helvetica;" parent="25" vertex="1">
                    <mxGeometry x="75" y="156.06338028169012" width="115.59633027522935" height="85.56338028169014" as="geometry"/>
                </mxCell>
                <mxCell id="29" value="" style="html=1;jettySize=18;whiteSpace=wrap;fontSize=11;strokeColor=#000000;strokeOpacity=100;strokeWidth=4;rounded=1;arcSize=12;edgeStyle=orthogonalEdgeStyle;startArrow=none;endArrow=classic;endFill=1;exitX=1;exitY=0.75;entryX=0;entryY=0.5;entryPerimeter=0;lucidId=YW3KdxEAY-yI;movable=1;resizable=1;rotatable=1;deletable=1;editable=1;locked=0;connectable=1;entryDx=0;entryDy=0;align=center;verticalAlign=middle;fontFamily=Helvetica;fontColor=#000000;labelBackgroundColor=default;curved=1;opacity=70;exitDx=0;exitDy=0;" parent="25" source="28" target="27" edge="1">
                    <mxGeometry width="100" height="100" relative="1" as="geometry">
                        <Array as="points">
                            <mxPoint x="220" y="220"/>
                            <mxPoint x="220" y="266"/>
                        </Array>
                        <mxPoint x="190.5963302752292" y="198.84507042253517" as="sourcePoint"/>
                        <mxPoint x="358.6733944954128" y="270.33802816901436" as="targetPoint"/>
                    </mxGeometry>
                </mxCell>
                <mxCell id="30" value="Database" style="html=1;overflow=block;blockSpacing=1;whiteSpace=wrap;shape=cylinder3;size=4;anchorPointDirection=0;boundedLbl=1;fontSize=18;spacing=9;strokeColor=#000000;rounded=1;absoluteArcSize=1;arcSize=9;fillColor=#FFFFFF;strokeWidth=2;lucidId=YW3Kp418ABGM;fontColor=#000000;movable=1;resizable=1;rotatable=1;deletable=1;editable=1;locked=0;connectable=1;fontStyle=1;align=center;verticalAlign=middle;fontFamily=Helvetica;" parent="25" vertex="1">
                    <mxGeometry x="272.4770642201835" y="70.5" width="91.5137614678899" height="114.08450704225353" as="geometry"/>
                </mxCell>
                <mxCell id="31" value="" style="html=1;jettySize=18;whiteSpace=wrap;fontSize=11;strokeColor=#000000;strokeOpacity=100;strokeWidth=4;rounded=1;arcSize=12;edgeStyle=orthogonalEdgeStyle;startArrow=none;endArrow=classic;endFill=1;entryX=0;entryY=0.5;entryPerimeter=0;lucidId=-Y3KwEjDYEKj;movable=1;resizable=1;rotatable=1;deletable=1;editable=1;locked=0;connectable=1;align=center;verticalAlign=middle;fontFamily=Helvetica;fontColor=#000000;labelBackgroundColor=default;curved=1;opacity=70;exitX=1;exitY=0.25;exitDx=0;exitDy=0;entryDx=0;entryDy=0;" parent="25" source="28" target="30" edge="1">
                    <mxGeometry width="100" height="100" relative="1" as="geometry">
                        <mxPoint x="12.385321100917395" y="208.35211267605632" as="sourcePoint"/>
                        <mxPoint x="83.93944954128438" y="208.35211267605632" as="targetPoint"/>
                    </mxGeometry>
                </mxCell>
                <mxCell id="32" value="command: &lt;br&gt;&lt;div&gt;start next&amp;nbsp;&lt;/div&gt;&lt;div&gt;process&lt;/div&gt;" style="html=1;overflow=block;blockSpacing=1;whiteSpace=wrap;ellipse;shape=cloud;fontSize=18;spacing=9;strokeColor=#000000;strokeOpacity=100;fillOpacity=100;rounded=1;absoluteArcSize=1;arcSize=9;fillColor=#FFFFFF;strokeWidth=2;lucidId=YW3K_GFCVog0;movable=1;resizable=1;rotatable=1;deletable=1;editable=1;locked=0;connectable=1;fontColor=#000000;align=center;verticalAlign=middle;fontFamily=Helvetica;fontStyle=1;" parent="25" vertex="1">
                    <mxGeometry x="219.03495412844038" y="188.38450704225357" width="211.92660550458717" height="155.9154929577465" as="geometry"/>
                </mxCell>
                <mxCell id="48" value="" style="group;fillColor=none;strokeColor=none;fontColor=#000000;" parent="1" vertex="1" connectable="0">
                    <mxGeometry x="270" y="-870" width="635" height="380" as="geometry"/>
                </mxCell>
                <mxCell id="49" value="&lt;b&gt;&lt;font style=&quot;font-size: 22px;&quot;&gt;Process 2&lt;/font&gt;&lt;/b&gt;" style="html=1;overflow=block;blockSpacing=1;whiteSpace=wrap;container=0;pointerEvents=0;collapsible=0;recursiveResize=0;fontSize=20;spacing=0;strokeColor=#b46504;strokeOpacity=100;fillOpacity=100;rounded=1;absoluteArcSize=1;arcSize=71;fillColor=#fad7ac;strokeWidth=5;lucidId=YW3KrpG5FYHL;horizontal=1;verticalAlign=top;spacingTop=10;spacingLeft=10;spacingRight=10;movable=1;resizable=1;rotatable=1;deletable=1;editable=1;locked=0;connectable=1;fontColor=#000000;" parent="48" vertex="1">
                    <mxGeometry x="15" width="620" height="380" as="geometry"/>
                </mxCell>
                <mxCell id="50" value="Queue" style="html=1;overflow=block;blockSpacing=1;whiteSpace=wrap;shape=cylinder3;direction=south;size=10;anchorPointDirection=0;boundedLbl=1;fontSize=18;spacing=9;strokeColor=#000000;rounded=1;absoluteArcSize=1;arcSize=9;fillColor=#FFFFFF;strokeWidth=2;lucidId=YW3Kj~0P2WnY;fontColor=#000000;movable=1;resizable=1;rotatable=1;deletable=1;editable=1;locked=0;connectable=1;fontStyle=1;align=center;verticalAlign=middle;fontFamily=Helvetica;" parent="48" vertex="1">
                    <mxGeometry x="455.50458715596335" y="223.56338028169012" width="144.4954128440367" height="85.56338028169014" as="geometry"/>
                </mxCell>
                <mxCell id="51" value="Process" style="html=1;overflow=block;blockSpacing=1;whiteSpace=wrap;fontSize=18;spacing=9;strokeColor=#000000;rounded=1;absoluteArcSize=1;arcSize=9;fillColor=#FFFFFF;strokeWidth=2;lucidId=YW3KcYp1MhGA;fontColor=#000000;movable=1;resizable=1;rotatable=1;deletable=1;editable=1;locked=0;connectable=1;fontStyle=1;perimeterSpacing=0;align=center;verticalAlign=middle;fontFamily=Helvetica;" parent="48" vertex="1">
                    <mxGeometry x="75" y="156.06338028169012" width="115.59633027522935" height="85.56338028169014" as="geometry"/>
                </mxCell>
                <mxCell id="52" value="" style="html=1;jettySize=18;whiteSpace=wrap;fontSize=11;strokeColor=#000000;strokeOpacity=100;strokeWidth=4;rounded=1;arcSize=12;edgeStyle=orthogonalEdgeStyle;startArrow=none;endArrow=classic;endFill=1;exitX=1;exitY=0.75;entryX=0;entryY=0.5;entryPerimeter=0;lucidId=YW3KdxEAY-yI;movable=1;resizable=1;rotatable=1;deletable=1;editable=1;locked=0;connectable=1;entryDx=0;entryDy=0;align=center;verticalAlign=middle;fontFamily=Helvetica;fontColor=#000000;labelBackgroundColor=default;curved=1;opacity=70;exitDx=0;exitDy=0;" parent="48" source="51" target="50" edge="1">
                    <mxGeometry width="100" height="100" relative="1" as="geometry">
                        <Array as="points">
                            <mxPoint x="210" y="220"/>
                            <mxPoint x="210" y="266"/>
                        </Array>
                        <mxPoint x="190.5963302752292" y="198.84507042253517" as="sourcePoint"/>
                        <mxPoint x="358.6733944954128" y="270.33802816901436" as="targetPoint"/>
                    </mxGeometry>
                </mxCell>
                <mxCell id="53" value="Database" style="html=1;overflow=block;blockSpacing=1;whiteSpace=wrap;shape=cylinder3;size=4;anchorPointDirection=0;boundedLbl=1;fontSize=18;spacing=9;strokeColor=#000000;rounded=1;absoluteArcSize=1;arcSize=9;fillColor=#FFFFFF;strokeWidth=2;lucidId=YW3Kp418ABGM;fontColor=#000000;movable=1;resizable=1;rotatable=1;deletable=1;editable=1;locked=0;connectable=1;fontStyle=1;align=center;verticalAlign=middle;fontFamily=Helvetica;" parent="48" vertex="1">
                    <mxGeometry x="272.4770642201835" y="70.5" width="91.5137614678899" height="114.08450704225353" as="geometry"/>
                </mxCell>
                <mxCell id="54" value="" style="html=1;jettySize=18;whiteSpace=wrap;fontSize=11;strokeColor=#000000;strokeOpacity=100;strokeWidth=4;rounded=1;arcSize=12;edgeStyle=orthogonalEdgeStyle;startArrow=none;endArrow=classic;endFill=1;entryX=0;entryY=0.5;entryPerimeter=0;lucidId=-Y3KwEjDYEKj;movable=1;resizable=1;rotatable=1;deletable=1;editable=1;locked=0;connectable=1;align=center;verticalAlign=middle;fontFamily=Helvetica;fontColor=#000000;labelBackgroundColor=default;curved=1;opacity=70;exitX=1;exitY=0.25;exitDx=0;exitDy=0;entryDx=0;entryDy=0;" parent="48" source="51" target="53" edge="1">
                    <mxGeometry width="100" height="100" relative="1" as="geometry">
                        <mxPoint x="12.385321100917395" y="208.35211267605632" as="sourcePoint"/>
                        <mxPoint x="83.93944954128438" y="208.35211267605632" as="targetPoint"/>
                    </mxGeometry>
                </mxCell>
                <mxCell id="55" value="command: &lt;br&gt;&lt;div&gt;start next&amp;nbsp;&lt;/div&gt;&lt;div&gt;process&lt;/div&gt;" style="html=1;overflow=block;blockSpacing=1;whiteSpace=wrap;ellipse;shape=cloud;fontSize=18;spacing=9;strokeColor=#000000;strokeOpacity=100;fillOpacity=100;rounded=1;absoluteArcSize=1;arcSize=9;fillColor=#FFFFFF;strokeWidth=2;lucidId=YW3K_GFCVog0;movable=1;resizable=1;rotatable=1;deletable=1;editable=1;locked=0;connectable=1;fontColor=#000000;align=center;verticalAlign=middle;fontFamily=Helvetica;fontStyle=1;" parent="48" vertex="1">
                    <mxGeometry x="211.53495412844038" y="184.58450704225356" width="211.92660550458717" height="155.9154929577465" as="geometry"/>
                </mxCell>
                <mxCell id="56" value="" style="html=1;jettySize=18;whiteSpace=wrap;fontSize=11;strokeColor=#000000;strokeOpacity=100;strokeWidth=4;rounded=1;arcSize=12;edgeStyle=orthogonalEdgeStyle;startArrow=none;endArrow=classic;endFill=1;entryX=0;entryY=0.5;lucidId=-Y3KwEjDYEKj;movable=1;resizable=1;rotatable=1;deletable=1;editable=1;locked=0;connectable=1;align=center;verticalAlign=middle;fontFamily=Helvetica;fontColor=#000000;labelBackgroundColor=default;opacity=70;exitX=1;exitY=0;exitDx=0;exitDy=41.12385321100918;exitPerimeter=0;entryDx=0;entryDy=0;curved=1;" parent="1" source="GoKNf1hH-Z8f_osksqzi-5" target="51" edge="1">
                    <mxGeometry width="100" height="100" relative="1" as="geometry">
                        <mxPoint x="233" y="-591.7427665073006" as="sourcePoint"/>
                        <mxPoint x="344.99642201834877" y="-646.4349295774647" as="targetPoint"/>
                    </mxGeometry>
                </mxCell>
                <mxCell id="35" value="" style="html=1;jettySize=18;whiteSpace=wrap;fontSize=11;strokeColor=#000000;strokeOpacity=100;strokeWidth=4;rounded=1;arcSize=12;edgeStyle=orthogonalEdgeStyle;startArrow=none;endArrow=classic;endFill=1;entryX=0;entryY=0.5;lucidId=-Y3KwEjDYEKj;movable=1;resizable=1;rotatable=1;deletable=1;editable=1;locked=0;connectable=1;align=center;verticalAlign=middle;fontFamily=Helvetica;fontColor=#000000;labelBackgroundColor=default;opacity=70;exitX=1;exitY=0.5;exitDx=0;exitDy=0;exitPerimeter=0;entryDx=0;entryDy=0;curved=1;" parent="1" source="50" target="28" edge="1">
                    <mxGeometry width="100" height="100" relative="1" as="geometry">
                        <mxPoint x="873" y="-591.7427665073006" as="sourcePoint"/>
                        <mxPoint x="984.9964220183488" y="-646.4349295774647" as="targetPoint"/>
                    </mxGeometry>
                </mxCell>
                <mxCell id="GoKNf1hH-Z8f_osksqzi-77" value="Untitled Layer" style="" parent="0"/>
            </root>
        </mxGraphModel>
    </diagram>
</mxfile>